# xmcd
#
# Track frame offsets: 
#        150
#        18630
#        42340
#        69515
#
# Disc length: 1256 seconds
#
# Revision: 0
# Processed by: cddbd v1.5.2PL0 Copyright (c) Steve Scherf et al.
# Submitted via: ExactAudioCopy v1.0b1
#
DISCID=3004e604
DTITLE=Ava and Stone - All Aboard CDM
DYEAR=1994
DGENRE=Eurodance
TTITLE0=All Aboard (Radio Mix)
TTITLE1=All Aboard (Extended Mix)
TTITLE2=All Aboard (Captain Mix)
TTITLE3=All Aboard (Karaoke Mix)
EXTD=
EXTT0=
EXTT1=
EXTT2=
EXTT3=
PLAYORDER=
